<?xml version="1.0" standalone="no"?>
<!DOCTYPE svg PUBLIC "-//W3C//DTD SVG 20010904//EN"
 "http://www.w3.org/TR/2001/REC-SVG-20010904/DTD/svg10.dtd">
<svg version="1.0" xmlns="http://www.w3.org/2000/svg"
 width="1024.000000pt" height="1024.000000pt" viewBox="0 0 1024.000000 1024.000000"
 preserveAspectRatio="xMidYMid meet">
<metadata>
Created by potrace 1.14, written by Peter Selinger 2001-2017
</metadata>
<g transform="translate(0.000000,1024.000000) scale(0.100000,-0.100000)"
fill="#000000" stroke="none">
<path d="M0 5120 l0 -5120 5120 0 5120 0 0 5120 0 5120 -5120 0 -5120 0 0
-5120z m5399 4440 c781 -41 1519 -282 2171 -708 645 -422 1155 -984 1501
-1657 270 -525 414 -990 475 -1535 24 -214 24 -667 0 -875 -71 -619 -275
-1218 -588 -1734 -593 -973 -1543 -1689 -2623 -1976 -387 -103 -744 -148
-1175 -149 -799 -2 -1579 207 -2260 604 -614 358 -1133 863 -1515 1477 -99
159 -283 524 -348 693 -127 325 -213 655 -258 983 -27 195 -37 680 -20 890 55
656 272 1300 639 1900 434 707 1020 1250 1742 1612 570 286 1225 454 1860 478
173 7 214 6 399 -3z"/>
<path d="M4950 9404 c-369 -21 -800 -103 -1155 -219 -634 -207 -1187 -547
-1665 -1025 -296 -295 -552 -651 -761 -1055 -373 -722 -523 -1461 -454 -2238
17 -194 25 -249 66 -445 144 -694 489 -1375 964 -1906 155 -174 187 -206 310
-315 490 -437 958 -711 1538 -900 305 -99 570 -158 890 -198 202 -25 740 -25
952 0 759 91 1419 341 2005 760 380 272 735 624 1001 994 443 615 698 1304
760 2048 15 187 7 649 -16 815 -65 489 -198 908 -434 1365 -227 440 -441 736
-780 1076 -782 782 -1826 1228 -2911 1243 -135 2 -274 2 -310 0z m-10 -181 c0
-13 -87 -273 -93 -279 -3 -3 -60 -12 -128 -20 -400 -46 -873 -190 -1252 -380
-357 -178 -611 -365 -927 -683 -305 -306 -506 -582 -683 -936 -218 -437 -346
-887 -387 -1361 -12 -135 -10 -617 2 -629 7 -8 231 13 443 41 163 21 171 22
410 49 280 32 262 28 267 69 2 19 1 43 -3 53 -6 17 -3 18 50 12 130 -17 146
-2 24 21 -35 7 -65 16 -68 20 -7 11 13 235 31 340 41 248 112 464 229 705 135
278 276 476 495 696 339 340 680 539 1125 654 238 61 311 70 610 70 288 0 328
-4 539 -56 505 -125 957 -417 1255 -814 33 -43 58 -81 55 -84 -2 -3 -26 16
-52 41 -259 249 -654 443 -1042 513 -142 25 -444 31 -596 11 -254 -33 -528
-123 -721 -235 l-102 -60 -28 35 c-27 33 -29 34 -50 19 -26 -18 -30 -47 -9
-64 15 -13 29 -54 16 -46 -5 3 -12 1 -15 -5 -4 -6 -23 -22 -43 -35 -21 -13
-68 -53 -107 -89 -38 -36 -79 -68 -90 -70 -11 -3 -103 -12 -205 -21 -102 -9
-200 -19 -217 -22 -69 -11 -17 -21 154 -28 98 -4 181 -9 185 -12 4 -2 -20 -36
-55 -76 -177 -203 -308 -451 -384 -725 -15 -53 -28 -98 -29 -100 -1 -2 -55 4
-120 12 -138 19 -194 20 -194 6 0 -14 2 -14 152 -41 70 -12 132 -25 138 -29 8
-5 6 -42 -5 -131 -17 -137 -20 -351 -6 -378 11 -19 -37 -23 576 44 83 9 209
26 280 37 72 11 172 23 224 27 l95 6 17 70 c9 39 16 70 15 71 -4 3 -187 38
-336 65 -96 17 -177 32 -179 34 -18 19 40 17 249 -6 135 -16 255 -28 266 -29
15 0 31 15 53 48 51 79 101 123 187 164 167 79 362 48 494 -78 l56 -53 239 60
c252 62 345 81 345 69 0 -10 -500 -170 -532 -170 -20 0 -32 -16 -19 -24 4 -3
18 -32 30 -64 l22 -58 66 8 c36 4 93 14 125 23 33 8 63 13 66 11 13 -7 363 23
380 33 14 9 13 10 -10 11 -15 0 -30 4 -33 10 -7 11 10 15 120 30 130 18 618
119 629 130 11 11 21 192 29 523 3 115 8 211 10 213 3 3 33 -41 67 -98 278
-458 329 -538 339 -538 23 0 663 148 698 161 14 5 28 7 31 5 2 -3 -39 -53 -93
-111 -54 -58 -96 -107 -94 -109 2 -1 67 5 144 15 77 11 167 21 200 24 33 2
106 10 162 16 85 10 102 15 106 30 6 23 27 25 27 4 0 -10 10 -15 28 -15 33 0
206 21 210 25 2 2 -1 46 -8 97 -69 547 -342 1155 -750 1674 -98 125 -366 398
-490 500 -247 204 -497 367 -764 498 -187 93 -210 102 -432 181 -236 84 -546
154 -834 190 l-45 6 -40 132 c-22 72 -40 136 -40 142 0 12 75 8 235 -11 867
-102 1682 -477 2320 -1068 390 -360 700 -795 941 -1316 158 -342 245 -621 303
-970 56 -335 60 -820 10 -1165 -117 -807 -485 -1557 -1050 -2145 -610 -633
-1340 -1041 -2149 -1200 -219 -43 -615 -91 -615 -75 0 4 20 72 46 151 l45 144
44 0 c158 0 555 83 807 169 662 224 1214 601 1680 1146 339 396 588 882 728
1419 87 337 113 534 117 911 2 278 4 300 20 303 53 9 113 36 142 63 18 16 36
27 39 24 3 -3 7 -81 9 -173 3 -93 9 -177 15 -189 8 -17 8 -33 1 -58 l-11 -34
40 32 40 32 -6 185 c-8 234 -15 310 -31 310 -8 0 -14 30 -18 93 -9 146 -27
238 -46 235 -12 -2 -19 -26 -28 -91 -14 -96 -32 -143 -66 -175 -23 -22 -21
-22 -817 -112 -151 -18 -286 -36 -300 -42 -14 -5 -41 -29 -60 -52 -19 -24 -66
-78 -103 -119 l-69 -76 77 -123 c42 -68 91 -145 108 -173 108 -171 196 -319
193 -322 -2 -2 -44 14 -92 35 -337 151 -557 242 -567 235 -11 -7 -283 -325
-394 -463 -7 -8 -19 -24 -27 -35 -8 -11 -17 -18 -19 -15 -5 4 26 551 36 656 4
40 3 41 -37 56 -23 9 -108 42 -190 73 -133 51 -155 57 -200 52 -28 -3 -130
-15 -226 -27 -188 -22 -492 -50 -525 -49 -11 1 -4 5 15 9 44 11 640 90 675 90
39 0 30 15 -21 35 -51 19 -18 21 -459 -25 -390 -42 -355 -34 -355 -82 0 -45
-18 -117 -33 -133 -6 -6 -8 3 -4 26 8 57 -19 186 -54 258 -151 307 -549 320
-707 24 -55 -104 -77 -260 -52 -368 5 -22 7 -41 5 -43 -8 -8 -53 95 -60 136
-8 51 8 50 -234 17 -218 -29 -633 -79 -1136 -135 -198 -22 -470 -54 -605 -71
-135 -16 -364 -43 -510 -59 -146 -16 -384 -43 -530 -60 -380 -43 -367 -44
-459 44 l-53 51 6 -66 c9 -95 33 -155 80 -204 44 -46 101 -65 190 -65 l43 0
22 -112 c143 -729 516 -1414 1057 -1938 495 -479 1155 -827 1844 -974 106 -22
189 -35 359 -54 l64 -7 44 -130 c24 -71 46 -138 49 -147 6 -20 -5 -20 -256 8
-769 86 -1499 390 -2110 878 -158 127 -464 432 -601 601 -426 523 -726 1168
-829 1785 -44 259 -51 332 -57 590 -9 366 19 624 106 983 84 346 194 626 384
978 278 516 692 995 1147 1330 188 138 260 183 497 313 445 243 1022 415 1586
471 73 7 135 13 140 14 4 0 7 -2 7 -6z m274 -66 c21 -21 37 -39 35 -40 -2 -1
-17 -9 -34 -17 -16 -9 -35 -26 -41 -38 -16 -32 -21 -32 -44 6 -11 18 -31 37
-45 42 -33 12 -31 21 5 42 17 10 38 31 48 48 15 27 18 29 27 13 6 -10 27 -35
49 -56z m-18 -317 l27 -69 93 -3 94 -3 -69 -55 c-39 -30 -70 -59 -70 -65 -1
-5 10 -49 23 -97 14 -49 23 -88 21 -88 -2 0 -39 24 -82 53 l-78 52 -70 -47
c-38 -26 -73 -47 -77 -47 -5 -1 14 80 37 155 6 18 -6 32 -65 80 l-72 59 34 2
c18 2 61 6 95 9 l62 5 27 69 c15 38 30 67 35 65 4 -3 20 -36 35 -75z m-542
-100 c24 -37 30 -40 73 -40 l47 0 -39 -40 c-37 -38 -38 -40 -27 -78 16 -54 17
-53 -27 -29 l-40 22 -31 -24 c-17 -12 -33 -21 -36 -19 -2 3 1 19 6 37 12 42 5
56 -38 83 l-36 22 44 11 c45 11 70 38 70 78 0 25 4 22 34 -23z m1056 -12 c0
-26 28 -48 61 -48 38 0 37 -12 -3 -44 -29 -22 -32 -29 -30 -73 2 -40 0 -45
-10 -32 -7 9 -23 21 -36 28 -19 10 -28 9 -59 -10 l-36 -23 7 25 c20 62 18 73
-13 103 -17 17 -31 33 -31 38 0 4 22 8 48 8 46 0 49 2 66 37 14 29 20 34 27
22 5 -8 9 -22 9 -31z m-1350 -98 c22 0 40 -3 40 -6 0 -3 -9 -19 -21 -35 -18
-25 -19 -34 -10 -61 14 -38 11 -41 -24 -28 -28 11 -49 2 -68 -27 -15 -25 -28
-13 -25 24 3 32 -1 40 -32 60 -46 32 -48 40 -9 50 35 9 44 21 54 67 l6 29 25
-37 c21 -31 30 -36 64 -36z m1713 -7 c4 -6 21 -14 37 -18 39 -8 38 -20 -2 -41
-41 -21 -48 -31 -48 -73 l0 -34 -23 21 c-26 24 -48 27 -79 11 -28 -15 -30 -8
-8 34 l19 36 -29 28 c-17 15 -30 30 -30 33 0 3 19 5 42 5 38 0 45 4 68 39 l25
39 10 -34 c6 -19 13 -39 18 -46z m-2104 -54 c21 -28 27 -31 62 -25 43 7 50 -5
22 -36 -17 -19 -17 -21 12 -92 7 -16 6 -17 -13 -7 -31 16 -57 13 -77 -9 -25
-28 -33 -25 -37 13 -2 27 -10 35 -45 52 -23 11 -41 24 -40 29 2 5 18 14 37 20
31 10 35 16 38 49 4 45 11 46 41 6z m2411 -1 c0 -41 7 -51 48 -67 26 -11 30
-16 21 -27 -6 -8 -18 -14 -26 -14 -23 0 -63 -47 -63 -75 0 -34 -11 -32 -33 6
-16 29 -20 31 -54 24 l-36 -7 16 26 c22 34 21 59 -3 81 -29 27 -25 30 30 27
47 -4 51 -2 67 27 23 40 33 39 33 -1z m250 -119 c0 -27 18 -59 32 -59 7 0 23
10 36 23 l25 22 -17 -33 c-16 -31 -16 -35 -2 -51 22 -25 21 -28 -18 -35 -40
-8 -54 -22 -62 -65 l-7 -32 -29 36 c-30 36 -34 37 -88 17 -9 -4 -4 8 12 30
l27 36 -26 28 -27 29 42 3 c37 3 45 8 64 42 23 40 38 43 38 9z m-2904 -31 c46
14 52 10 30 -22 -9 -14 -16 -32 -16 -41 0 -9 7 -27 16 -41 21 -30 15 -38 -20
-25 -34 13 -48 7 -71 -31 l-19 -32 -10 44 c-11 44 -19 52 -71 71 l-30 11 43
19 c33 14 42 23 42 43 0 13 3 32 7 42 5 14 10 12 33 -17 27 -32 29 -33 66 -21z
m3281 -200 c18 -11 33 -22 33 -24 0 -3 -20 -13 -45 -24 -31 -13 -45 -25 -45
-39 0 -49 -11 -53 -44 -15 -28 32 -34 36 -53 25 -38 -20 -45 -12 -23 25 l23
36 -22 29 -22 29 46 0 c40 0 50 5 73 32 l27 32 9 -43 c7 -34 17 -48 43 -63z
m-3575 43 c49 14 50 12 26 -30 l-23 -40 23 -30 c28 -39 28 -43 -4 -31 -41 16
-54 12 -75 -25 -24 -39 -39 -38 -39 4 0 32 -11 44 -54 58 -42 13 -43 29 -2 43
36 12 54 43 43 74 -11 27 6 25 39 -4 29 -25 37 -28 66 -19z m3842 -202 l38
-16 -43 -24 c-37 -21 -45 -30 -52 -68 l-9 -45 -32 39 c-31 36 -34 38 -64 27
-33 -11 -42 -3 -18 17 23 19 25 49 5 75 -28 35 -24 42 25 38 40 -4 46 -1 67
28 l24 32 10 -43 c9 -36 17 -46 49 -60z m-4123 21 c13 0 31 4 39 9 25 17 29 1
8 -34 -21 -36 -20 -44 8 -83 l17 -23 -42 7 c-39 6 -44 4 -71 -27 l-29 -34 -1
33 c0 36 -45 92 -74 92 -26 0 -18 17 11 25 42 10 53 24 53 64 l1 36 28 -32
c17 -21 37 -33 52 -33z m-326 -294 c0 -22 -1 -22 -24 -8 -22 15 -22 16 -5 23
28 11 29 11 29 -15z m-220 -132 c21 -14 26 -14 55 1 32 16 32 16 24 -7 -10
-29 -10 -68 1 -92 7 -16 5 -18 -23 -11 -26 5 -33 2 -47 -19 -21 -32 -35 -33
-35 -4 0 12 -12 32 -27 45 l-28 23 23 6 c17 5 22 14 22 40 0 39 2 40 35 18z
m5049 -9 c18 -12 30 -13 50 -6 25 10 26 9 26 -27 0 -21 5 -43 11 -49 8 -8 6
-18 -7 -37 -23 -31 -31 -32 -39 -5 -6 18 -12 20 -46 15 -21 -3 -39 -5 -39 -3
0 2 7 18 16 35 11 23 12 36 5 51 -12 21 -14 41 -6 41 3 0 16 -7 29 -15z m248
-184 c-3 -22 2 -33 25 -51 21 -17 24 -24 14 -28 -18 -6 -52 -40 -67 -67 -10
-18 -12 -17 -25 10 -12 24 -21 31 -53 33 l-38 3 23 25 c21 22 22 28 11 56 -15
40 -10 44 28 28 25 -10 34 -10 53 3 31 22 34 21 29 -12z m-5478 -10 c18 -19
58 -18 85 3 12 9 13 7 7 -14 -17 -58 -18 -70 -2 -85 24 -24 20 -30 -21 -30
-33 0 -40 -4 -54 -34 -16 -35 -16 -35 -29 -12 -8 17 -18 22 -36 18 -21 -4 -23
-1 -18 20 5 17 0 31 -16 48 -18 19 -20 25 -9 29 8 2 22 7 32 10 9 3 20 19 23
36 7 35 15 37 38 11z m5608 -208 c6 -7 23 -13 39 -13 34 0 37 -10 9 -28 -15
-9 -20 -23 -20 -52 0 -45 -7 -48 -43 -19 -21 16 -31 18 -46 10 -32 -18 -37
-13 -33 29 3 26 0 40 -8 40 -21 0 -6 19 40 48 37 24 46 26 49 13 2 -9 8 -22
13 -28z m-5724 -64 c30 1 33 -1 27 -19 -4 -13 1 -30 15 -48 l22 -27 -37 -3
c-30 -3 -39 -9 -49 -33 -11 -27 -14 -28 -26 -14 -8 10 -23 15 -38 12 -20 -4
-23 -1 -18 18 4 15 -1 32 -13 46 -19 24 -19 24 10 36 19 8 29 19 29 33 0 18 2
19 23 9 12 -7 37 -12 55 -10z m5814 -149 c10 -15 24 -20 55 -20 24 0 43 -2 43
-5 0 -3 -9 -19 -21 -34 -17 -23 -19 -33 -10 -49 16 -31 14 -34 -18 -27 -23 5
-32 2 -43 -14 -15 -22 -28 -18 -28 7 0 22 -30 52 -52 52 -26 0 -22 25 7 38 19
9 25 19 25 42 0 35 23 41 42 10z m-5987 -80 c10 -11 31 -20 48 -20 24 0 28 -3
21 -17 -9 -22 -9 -51 1 -80 7 -21 5 -22 -25 -13 -27 8 -35 6 -55 -15 -32 -36
-45 -31 -45 15 0 33 -4 42 -25 52 -32 15 -32 21 5 35 18 7 32 21 36 37 7 31
15 32 39 6z m6135 -170 c10 -25 18 -30 46 -30 40 0 41 -2 13 -40 -14 -18 -20
-37 -17 -54 8 -41 -12 -43 -43 -5 -26 32 -29 33 -58 22 -35 -13 -38 -7 -14 35
17 29 17 31 0 50 -23 25 -21 32 7 32 14 0 28 5 31 10 11 17 22 11 35 -20z
m-6215 -60 c9 -16 22 -30 30 -30 19 0 19 -16 0 -24 -9 -3 -15 -18 -15 -36 0
-32 -9 -37 -39 -18 -15 9 -22 8 -36 -5 -24 -24 -37 -11 -29 29 5 26 2 40 -11
54 -18 20 -17 20 18 20 26 0 39 6 47 20 14 26 17 25 35 -10z m6318 -191 c13
-15 25 -19 43 -15 17 5 24 2 24 -8 0 -8 -5 -18 -11 -22 -7 -4 -9 -22 -6 -44 5
-36 3 -38 -27 -43 -22 -3 -36 1 -49 15 -12 12 -26 17 -38 13 -22 -7 -24 3 -4
28 9 12 11 27 6 40 -6 16 -3 26 13 39 27 22 28 22 49 -3z m-6388 -53 c8 -18
21 -36 30 -39 21 -9 19 -24 -4 -32 -11 -3 -23 -15 -26 -26 -5 -14 -12 -18 -23
-14 -10 4 -24 8 -32 10 -24 4 -60 17 -60 21 0 2 5 13 12 23 9 14 9 26 1 43
-10 23 -9 24 16 20 17 -2 32 2 40 12 20 24 30 20 46 -18z m6459 -161 c12 -18
25 -25 48 -25 l31 0 -21 -23 c-13 -14 -22 -36 -22 -55 0 -39 -15 -48 -37 -22
-11 12 -30 20 -50 20 -35 0 -41 8 -22 27 9 9 8 18 -5 37 -17 27 -15 30 17 26
11 -1 21 7 24 19 7 28 17 26 37 -4z m-6540 1 c-3 -8 4 -24 15 -35 12 -12 21
-26 21 -31 0 -6 7 -22 16 -35 16 -24 16 -25 -9 -25 -15 0 -32 -9 -41 -21 -8
-12 -19 -18 -26 -14 -6 4 -21 -1 -32 -12 -21 -18 -21 -18 -14 18 5 28 2 39
-14 54 -29 26 -25 45 8 45 21 0 32 8 46 35 19 34 41 50 30 21z m4376 -68 c19
-13 40 -39 47 -58 l14 -35 -23 27 c-27 32 -65 48 -116 48 -49 0 -81 -18 -109
-59 -29 -43 -32 -13 -3 34 39 64 129 84 190 43z m-2172 -154 c20 -14 52 -63
52 -79 0 -4 -13 7 -30 23 -57 57 -148 54 -201 -6 l-32 -36 7 29 c4 17 20 42
37 58 25 23 38 27 87 27 36 0 66 -6 80 -16z m4399 -24 c8 -22 18 -30 35 -30
35 0 40 -9 18 -37 -10 -13 -16 -31 -14 -38 3 -8 -3 -23 -13 -35 l-20 -20 -12
26 c-11 24 -15 26 -52 20 l-40 -6 15 29 c13 25 13 31 1 47 -20 27 -18 34 9 34
16 0 27 7 31 20 9 29 29 24 42 -10z m-6667 -15 c7 -18 17 -25 35 -25 29 0 29
0 13 -35 -8 -19 -8 -31 1 -51 12 -26 11 -26 -23 -20 -29 6 -37 3 -55 -20 l-21
-26 -10 26 c-7 19 -14 24 -27 19 -16 -6 -16 -5 -4 11 12 15 11 21 -8 46 l-22
30 28 0 c21 0 34 9 51 35 12 19 25 35 27 35 3 0 10 -11 15 -25z m-15 -295 c34
0 46 -12 24 -26 -11 -6 -8 -44 6 -78 7 -16 6 -17 -13 -7 -29 16 -36 14 -68
-16 l-29 -27 -6 39 c-4 22 -12 41 -18 43 -6 2 -21 12 -33 22 l-22 18 33 7 c25
5 36 15 48 43 l15 36 14 -27 c12 -21 22 -27 49 -27z m-68 -257 c10 -26 23 -32
50 -22 26 10 27 10 13 -27 -9 -23 -7 -31 11 -50 l22 -23 -40 -7 c-33 -5 -44
-13 -61 -43 -12 -20 -22 -31 -22 -24 0 6 -4 23 -10 37 -8 23 -13 25 -35 16
-24 -9 -36 2 -15 15 17 11 11 44 -10 55 -27 14 -16 30 20 30 22 0 30 6 39 30
11 33 28 39 38 13z m3163 -14 c0 -6 -12 -30 -26 -55 -14 -24 -37 -74 -51 -112
l-24 -67 5 62 c6 62 23 117 52 161 15 23 44 30 44 11z m3655 -99 c4 -14 15
-20 36 -20 31 0 36 -10 17 -39 -9 -15 -9 -25 0 -45 13 -29 10 -31 -18 -16 -15
8 -22 5 -34 -12 l-16 -22 -24 23 c-17 16 -31 21 -45 16 -23 -7 -28 4 -10 22 8
8 6 19 -5 42 l-17 31 29 0 c16 0 37 9 47 20 10 11 22 20 26 20 4 0 11 -9 14
-20z m-6764 -222 l30 4 -16 -31 c-11 -23 -13 -36 -5 -50 16 -31 12 -40 -16
-38 -26 2 -36 -8 -49 -48 -5 -17 -8 -16 -22 13 -16 34 -31 40 -51 20 -9 -9
-12 -9 -12 -1 0 7 5 15 10 18 16 10 11 40 -11 69 l-20 26 29 0 c32 0 42 14 42
58 l1 27 30 -35 c24 -28 35 -34 60 -32z m6769 -44 c0 -19 7 -28 30 -36 17 -5
30 -13 28 -17 -2 -3 -19 -30 -37 -59 l-34 -53 -28 27 c-23 22 -33 25 -61 19
l-33 -7 23 24 c26 29 28 46 5 77 -16 24 -16 24 11 19 18 -4 35 1 49 13 31 26
47 23 47 -7z m-4125 -10 c-208 -35 -840 -102 -852 -90 -6 6 48 14 367 51 439
52 670 70 485 39z m4175 -119 c7 -8 8 -15 2 -15 -5 0 -15 7 -22 15 -7 8 -8 15
-2 15 5 0 15 -7 22 -15z m-58 -176 c7 -5 21 -9 31 -9 21 0 22 -13 1 -31 -11
-9 -14 -22 -9 -47 6 -32 5 -33 -16 -21 -24 12 -25 11 -56 -38 -11 -17 -11 -17
-18 2 -21 63 -23 65 -67 65 l-43 0 28 26 c16 15 26 32 23 40 -3 8 -9 21 -12
29 -5 11 1 13 30 8 31 -5 39 -2 58 23 l22 28 7 -33 c4 -19 13 -37 21 -42z
m-5577 -186 c10 -41 41 -79 76 -93 30 -13 243 -10 489 5 l85 6 42 -88 c104
-216 221 -380 398 -559 180 -181 313 -278 523 -383 554 -277 1225 -277 1797 0
199 96 372 223 518 380 120 129 127 137 162 190 19 28 35 46 35 40 0 -18 -47
-106 -64 -120 -9 -8 -16 -18 -16 -23 0 -18 -139 -213 -223 -313 -95 -113 -278
-286 -392 -371 -251 -185 -564 -322 -890 -389 -112 -23 -152 -26 -294 -25
-160 1 -196 -6 -108 -21 28 -4 2 -7 -80 -8 l-123 -1 0 145 c0 138 -1 145 -20
145 -19 0 -20 -7 -20 -141 l0 -142 -107 6 c-440 23 -1014 291 -1381 643 -58
55 -74 76 -64 82 11 7 8 11 -10 15 -31 8 -74 51 -171 171 -204 251 -340 494
-438 783 -24 73 -26 82 -11 86 9 3 76 5 148 6 l132 1 7 -27z m5541 -149 l25
-6 -20 -22 c-12 -12 -21 -32 -21 -44 0 -23 -14 -30 -25 -12 -4 6 -15 6 -31 0
-32 -13 -34 -13 -34 3 -1 16 -35 57 -49 57 -19 0 -12 18 10 25 17 6 20 13 15
36 -6 31 5 38 26 15 10 -11 17 -10 43 5 l30 19 3 -35 c3 -28 8 -36 28 -41z
m-6648 17 c2 -18 10 -35 18 -38 16 -6 19 -33 4 -33 -15 0 -50 -33 -50 -47 0
-15 -16 -17 -25 -3 -3 6 -15 10 -26 10 -14 0 -19 7 -19 30 0 22 -7 33 -27 44
-29 15 -24 21 22 28 12 2 21 12 23 25 3 19 9 21 40 19 33 -3 37 -7 40 -35z
m6547 -203 c6 -13 20 -24 33 -26 22 -3 23 -5 7 -22 -14 -16 -15 -25 -6 -50 9
-28 8 -31 -7 -26 -11 4 -27 -3 -41 -15 -12 -12 -26 -17 -30 -13 -4 5 -19 25
-34 45 l-26 36 25 11 c16 8 24 20 24 37 0 16 6 25 15 25 8 0 15 5 15 10 0 18
15 11 25 -12z m-6550 4 c6 -4 16 -19 22 -34 8 -18 20 -28 34 -28 11 0 19 -3
17 -7 -2 -5 -14 -30 -27 -56 l-23 -49 -23 22 c-19 18 -27 20 -44 11 -20 -11
-20 -10 -14 34 4 30 2 45 -6 45 -19 0 -12 17 10 23 11 3 23 15 26 26 6 22 12
25 28 13z m6169 -217 c-7 -16 -24 -21 -24 -6 0 8 7 13 27 20 1 1 0 -6 -3 -14z
m316 -4 c0 -11 9 -23 20 -26 23 -7 24 -14 6 -38 -8 -10 -11 -27 -8 -39 4 -17
2 -20 -13 -14 -12 4 -26 -1 -40 -14 l-22 -20 -11 25 c-6 14 -19 25 -28 25 -15
0 -16 2 -2 18 11 11 13 24 8 37 -14 32 -11 43 8 39 9 -3 26 2 37 10 28 21 45
20 45 -3z m-6368 -8 c24 -5 26 -7 16 -29 -8 -18 -8 -27 3 -40 11 -14 11 -18
-4 -29 -9 -7 -17 -17 -17 -24 0 -15 -23 -14 -38 1 -9 9 -15 9 -24 0 -20 -20
-28 -14 -26 19 2 20 -3 34 -15 40 -24 14 -21 24 8 37 14 6 25 19 25 28 0 12 5
15 23 9 12 -4 34 -9 49 -12z m3120 -154 c-3 -62 -1 -75 23 -112 l26 -42 -34
36 c-43 45 -55 100 -33 153 8 20 16 36 18 36 2 0 1 -32 0 -71z m3157 -49 c6
-18 21 -34 38 -41 l28 -10 -24 -18 c-18 -14 -23 -25 -19 -45 6 -31 -5 -42 -22
-21 -17 20 -30 19 -57 -7 l-23 -21 0 36 c0 27 -5 37 -21 42 -13 4 -18 12 -15
22 3 8 6 21 6 29 0 8 10 14 25 14 15 0 31 9 41 25 21 33 30 32 43 -5z m-6191
-21 c30 16 33 14 21 -16 -8 -22 -7 -30 5 -39 21 -15 20 -24 -3 -24 -13 0 -21
-9 -26 -30 -7 -34 -16 -37 -35 -15 -9 11 -22 14 -41 10 -28 -6 -29 -5 -23 24
5 22 2 37 -10 50 -18 20 -12 31 15 31 12 0 21 10 25 27 l7 27 22 -28 c19 -24
26 -26 43 -17z m97 -230 c4 -13 19 -21 45 -25 l40 -6 -20 -26 c-12 -15 -18
-33 -15 -44 5 -13 1 -18 -14 -18 -11 0 -28 -11 -37 -25 -22 -34 -32 -31 -36 8
-2 26 -10 35 -42 51 l-39 19 35 18 c28 14 37 26 42 54 6 30 10 34 21 25 8 -7
17 -20 20 -31z m5935 10 c0 -5 7 -9 15 -9 9 0 20 -11 25 -25 5 -14 20 -27 35
-31 33 -8 32 -20 -2 -29 -32 -8 -43 -21 -43 -52 0 -28 -21 -30 -38 -3 -9 15
-19 18 -43 13 -31 -6 -32 -5 -25 22 6 24 2 32 -21 51 l-28 23 43 7 c33 5 44
12 48 30 6 21 34 24 34 3z m-821 -123 c-2 -2 -50 -6 -106 -9 -74 -4 -103 -2
-103 6 0 9 31 11 106 9 58 -2 104 -5 103 -6z m-279 -6 c0 -6 -30 -10 -70 -10
-40 0 -70 4 -70 10 0 6 30 10 70 10 40 0 70 -4 70 -10z m270 -45 c-3 -5 -14
-9 -25 -9 -24 2 -35 -12 -35 -43 0 -18 -6 -23 -24 -23 -13 0 -26 5 -28 12 -8
23 5 67 21 72 29 8 96 1 91 -9z m734 -49 c12 -28 22 -36 51 -42 l36 -6 -25
-27 c-19 -19 -26 -38 -26 -64 l0 -38 -30 23 c-29 21 -31 21 -59 5 -41 -24 -44
-22 -36 22 6 36 4 41 -25 63 l-32 23 44 5 c37 4 45 10 57 38 18 41 27 40 45
-2z m-5703 -18 c21 -25 30 -30 40 -21 11 9 14 4 15 -27 2 -31 -2 -39 -18 -44
-18 -4 -20 -10 -15 -40 7 -42 5 -43 -32 -15 -23 17 -33 19 -49 10 -35 -19 -42
-14 -30 20 9 27 7 33 -18 60 l-28 29 33 0 c25 0 36 6 49 30 9 16 19 30 22 30
3 0 17 -14 31 -32z m4914 -98 c13 -6 -20 -9 -91 -9 -61 -1 -194 -3 -295 -5
l-184 -4 230 12 c291 16 316 16 340 6z m-133 -50 c-32 -20 -162 -35 -162 -19
0 18 32 28 95 32 39 1 77 4 85 5 8 1 0 -7 -18 -18z m-4657 -25 c14 -19 30 -26
58 -27 42 -1 45 -7 16 -33 -16 -16 -19 -26 -13 -59 6 -35 5 -38 -12 -31 -42
17 -56 17 -74 0 -23 -21 -42 -11 -34 19 5 23 -10 47 -38 60 -10 5 -10 7 -1 12
31 14 63 47 63 65 0 26 10 24 35 -6z m5419 -17 c8 -16 22 -24 44 -26 33 -3 33
-3 17 -29 -14 -20 -15 -31 -6 -49 10 -23 9 -24 -23 -24 -25 0 -35 -6 -44 -25
-14 -31 -30 -32 -34 -2 -2 18 -9 22 -35 22 -24 0 -33 4 -33 17 0 9 5 20 10 23
16 10 12 21 -16 55 l-26 31 38 -7 c33 -5 43 -2 63 20 26 28 28 28 45 -6z
m-1089 -5 c-7 -29 -21 -50 -29 -42 -10 11 8 69 21 69 12 0 14 -7 8 -27z
m-4195 -125 c1 -31 30 -51 70 -50 l41 2 -23 -30 c-19 -26 -20 -34 -10 -50 18
-29 15 -32 -19 -25 -25 6 -34 3 -45 -14 -21 -29 -31 -26 -39 10 -5 20 -16 34
-32 40 l-26 10 22 22 c11 13 21 28 21 34 0 38 39 87 40 51z m4550 -8 c-9 -6
-131 -9 -300 -8 -157 0 -265 4 -240 8 72 11 557 11 540 0z m-175 -30 c3 -5
-96 -10 -262 -13 -147 -2 -278 -7 -290 -11 -18 -6 -23 -5 -23 7 0 9 11 17 28
20 59 9 541 7 547 -3z m744 -39 c6 -22 23 -49 37 -60 l25 -20 -30 -16 c-24
-12 -31 -22 -31 -45 0 -37 -12 -38 -35 -4 -14 22 -22 25 -50 21 l-33 -5 11 35
c10 33 9 37 -11 51 -35 23 -27 35 22 28 41 -7 44 -5 56 24 16 40 24 38 39 -9z
m-694 -20 c0 -41 -25 -62 -49 -42 -33 27 -12 85 29 79 16 -2 20 -11 20 -37z
m-505 4 c14 -36 3 -55 -31 -55 -26 0 -29 3 -29 34 0 49 44 64 60 21z m-1183
-192 c-20 -2 -52 -2 -70 0 -17 2 0 4 38 4 39 0 53 -2 32 -4z m142 -49 c2 -2
-64 -4 -148 -4 -151 0 -152 0 -176 -26 -28 -30 -34 -21 -10 13 9 13 29 23 48
25 41 5 280 -2 286 -8z m-1016 -111 c-7 -2 -21 -2 -30 0 -10 3 -4 5 12 5 17 0
24 -2 18 -5z m1440 0 c-51 -2 -135 -2 -185 0 -51 1 -10 3 92 3 102 0 143 -2
93 -3z m-2733 -53 c10 -24 19 -30 41 -30 34 0 37 -9 9 -33 -12 -10 -20 -29
-20 -47 0 -25 -4 -30 -23 -30 -16 0 -28 -9 -37 -27 l-13 -28 -12 35 c-9 28
-19 37 -51 46 -38 11 -38 11 -15 23 18 10 22 19 19 42 -4 25 -1 29 18 29 16 0
29 10 39 30 18 35 27 33 45 -10z m4055 10 c4 -13 15 -20 32 -20 24 0 25 -3 20
-36 -4 -25 -2 -37 9 -41 24 -9 16 -30 -14 -36 -18 -4 -33 -16 -41 -34 l-13
-28 -14 28 c-12 21 -20 26 -36 21 -18 -5 -19 -3 -13 27 6 27 3 35 -16 51 -20
15 -22 19 -9 28 8 5 23 10 33 10 9 0 23 11 29 25 14 30 24 32 33 5z m-1651 -1
c335 -2 432 -4 356 -10 -110 -9 -850 -2 -1270 11 -227 8 -219 8 104 4 192 -2
557 -5 810 -5z m241 -56 c-11 -3 -55 -19 -98 -35 l-79 -30 -40 18 -40 18 58
17 c33 9 94 17 139 17 44 0 71 -3 60 -5z m-909 -144 c7 -45 20 -58 28 -31 13
39 89 48 110 13 4 -5 -7 -4 -24 2 -36 14 -57 4 -80 -36 -13 -24 -13 -28 9 -59
l24 -33 -27 24 c-33 31 -85 184 -56 166 5 -3 13 -24 16 -46z m-1500 -34 c341
-190 652 -324 960 -411 52 -15 94 -30 94 -33 0 -4 -23 -20 -51 -38 l-50 -31
-142 45 c-254 80 -481 176 -699 294 -105 57 -257 148 -278 167 -4 3 58 62 66
62 0 0 46 -25 100 -55z m3698 8 c17 -9 8 -18 -70 -70 -248 -165 -563 -311
-884 -407 l-152 -46 -59 32 c-32 18 -55 35 -51 39 4 4 53 19 110 33 308 80
669 236 947 408 89 56 90 56 115 39 14 -10 34 -23 44 -28z m-1918 -258 c1 -8
14 -46 29 -85 l27 -70 71 -1 c117 -1 121 -6 44 -70 -36 -30 -66 -61 -66 -69 0
-8 8 -49 19 -90 10 -41 18 -76 16 -77 -2 -2 -37 19 -78 47 l-74 51 -74 -49
c-41 -28 -76 -49 -77 -48 -2 2 24 99 41 154 6 16 -7 32 -64 79 l-71 58 92 10
92 10 25 75 c14 41 27 81 29 89 4 16 16 7 19 -14z m-510 -175 c15 -37 19 -40
55 -40 21 0 39 -3 39 -7 0 -4 -12 -20 -27 -35 -25 -26 -26 -31 -15 -60 15 -40
11 -43 -27 -24 -38 20 -55 20 -71 1 -23 -28 -36 -17 -32 25 4 38 2 42 -27 53
-17 6 -31 14 -31 18 0 4 19 12 43 18 39 9 45 15 57 51 7 22 15 40 17 40 2 0
10 -18 19 -40z m1073 -50 c26 0 51 -10 51 -21 0 -5 -12 -15 -26 -21 -23 -11
-25 -17 -22 -55 2 -24 2 -43 0 -43 -1 0 -16 10 -33 22 -29 22 -31 22 -60 5
-44 -24 -48 -22 -35 24 10 39 9 42 -17 61 -32 24 -27 38 14 38 23 0 34 7 51
36 l21 35 18 -40 c12 -28 24 -41 38 -41z m-551 -415 c12 -19 32 -37 46 -41 34
-8 33 -25 -3 -46 -16 -9 -38 -33 -48 -53 l-19 -36 -17 38 c-9 21 -30 46 -47
56 -38 23 -38 33 0 41 22 4 35 15 47 41 9 19 18 35 19 35 1 0 11 -16 22 -35z"/>
<path d="M6080 9015 c0 -2 38 -16 85 -30 129 -40 507 -196 689 -285 506 -248
958 -595 1306 -1004 63 -74 117 -135 120 -135 3 -1 18 9 33 22 l28 22 -82 100
c-105 127 -336 362 -459 469 -238 207 -532 402 -829 550 -266 134 -430 192
-732 261 -162 38 -159 37 -159 30z"/>
<path d="M4165 9003 c-388 -83 -502 -121 -785 -255 -284 -135 -556 -309 -800
-512 -98 -82 -407 -381 -422 -410 -8 -14 -7 -21 3 -27 43 -26 43 -25 20 -60
-15 -23 -10 -19 16 11 119 143 419 420 598 555 358 269 854 518 1345 676 73
23 87 36 25 22z"/>
<path d="M2038 7693 c-28 -33 -27 -40 7 -71 l34 -31 35 49 c38 53 46 72 20 46
-20 -21 -27 -20 -49 4 -22 24 -28 25 -47 3z"/>
<path d="M1917 7528 c-20 -29 -62 -89 -92 -133 -177 -255 -368 -637 -475 -952
-28 -80 -50 -153 -50 -162 0 -9 15 -28 34 -43 l34 -27 13 52 c6 29 30 104 51
167 119 344 312 718 522 1005 68 92 74 105 54 105 -6 0 -21 9 -33 20 l-22 21
-36 -53z"/>
<path d="M8355 7533 c-11 -8 -26 -18 -34 -22 -10 -6 3 -31 56 -105 211 -295
411 -689 527 -1037 l52 -157 34 28 33 27 -33 104 c-70 223 -215 542 -362 797
-59 103 -232 367 -246 376 -4 2 -16 -2 -27 -11z"/>
<path d="M1278 6014 c-24 -21 -48 -34 -65 -34 -27 0 -28 -2 -29 -55 0 -30 4
-55 9 -55 11 0 7 -59 -18 -280 -8 -74 -14 -191 -14 -260 l0 -125 36 -30 36
-29 -7 31 c-4 18 -3 41 3 51 6 11 15 98 21 193 10 167 42 395 62 432 6 12 21
17 53 17 53 0 56 8 15 38 -21 16 -35 40 -47 81 l-18 60 -37 -35z"/>
<path d="M9052 4884 c-28 -56 -46 -68 -87 -61 l-35 6 25 -33 c27 -35 31 -60
15 -100 -11 -31 -6 -32 27 -6 35 27 65 25 94 -6 l24 -26 5 34 c4 25 13 37 37
48 40 19 41 31 5 52 -16 10 -42 43 -59 74 l-31 57 -20 -39z"/>
<path d="M1244 4473 c-20 -4 -20 -4 -4 -81 23 -105 61 -241 76 -277 l13 -30 1
28 c0 22 4 27 25 27 14 0 25 2 25 6 0 3 -16 68 -35 144 -19 76 -35 150 -35
164 0 27 -11 30 -66 19z"/>
<path d="M9005 4436 c-4 -23 -20 -99 -36 -171 -16 -71 -29 -131 -29 -132 0 -2
9 -3 20 -3 10 0 23 -7 28 -16 7 -12 21 29 51 152 51 209 51 209 7 210 -33 0
-35 -2 -41 -40z"/>
<path d="M8946 4005 c-22 -17 -102 -20 -111 -5 -16 26 -22 6 -9 -27 14 -33 14
-40 0 -70 -18 -38 -20 -46 -7 -39 4 3 25 -3 45 -14 26 -13 38 -15 41 -7 35 98
62 177 61 177 -1 0 -10 -7 -20 -15z"/>
<path d="M1369 3955 c72 -238 283 -645 471 -909 89 -125 120 -160 120 -133 0
9 11 24 23 34 l24 17 -73 96 c-132 175 -268 408 -381 654 -74 161 -103 233
-103 259 0 20 -1 20 -35 5 -24 -11 -29 -9 -46 12 -18 24 -18 24 0 -35z"/>
<path d="M8780 3760 c0 -20 -103 -229 -175 -356 -90 -157 -166 -269 -294 -437
-58 -77 -110 -145 -116 -152 -6 -10 -1 -22 18 -41 15 -15 29 -25 31 -23 4 5
112 137 155 190 49 60 195 278 254 379 78 135 207 398 207 424 0 2 -11 7 -24
10 -13 3 -31 9 -40 12 -9 4 -16 1 -16 -6z"/>
<path d="M2011 2889 c-14 -5 -31 -7 -38 -4 -17 6 9 -32 64 -94 l39 -44 27 18
c32 21 36 10 5 -15 l-22 -18 39 -48 c59 -72 287 -299 390 -388 402 -348 1010
-676 1440 -776 126 -29 288 -61 292 -56 2 2 -58 24 -134 50 -572 193 -1045
444 -1458 773 -137 108 -439 409 -526 523 -36 47 -71 86 -79 87 -8 1 -26 -2
-39 -8z"/>
<path d="M7970 2579 c-404 -405 -795 -670 -1325 -897 -143 -61 -378 -154 -472
-187 -29 -11 -51 -21 -48 -23 6 -7 282 57 390 90 244 75 576 237 846 411 115
74 342 246 454 343 102 89 309 295 373 371 l42 51 -32 18 -33 19 -195 -196z"/>
<path d="M3338 4503 c-57 -4 -57 -4 -68 -41 -19 -70 -11 -142 16 -142 17 0 34
-40 34 -78 0 -59 57 -93 94 -57 12 12 14 30 9 80 -6 62 -5 65 15 65 37 0 38
41 4 115 -17 36 -35 64 -39 63 -4 -1 -34 -3 -65 -5z"/>
</g>
</svg>
